solid AMI_7000mm
facet normal -0.000000 0.995185 -0.098018
outer loop
vertex -1.673750 7.000000 -0.000005
vertex 0.373750 7.000000 -0.000005
vertex 0.373750 6.865496 -1.365637
endloop
endfacet
facet normal 0.000000 0.995185 -0.098018
outer loop
vertex -1.673750 7.000000 -0.000005
vertex 0.373750 6.865496 -1.365637
vertex -1.673750 6.865496 -1.365637
endloop
endfacet
facet normal 0.000000 0.956940 -0.290285
outer loop
vertex -1.673750 6.865496 -1.365637
vertex 0.373750 6.865496 -1.365637
vertex 0.373750 6.467155 -2.678788
endloop
endfacet
facet normal 0.000000 0.956940 -0.290285
outer loop
vertex -1.673750 6.865496 -1.365637
vertex 0.373750 6.467155 -2.678788
vertex -1.673750 6.467155 -2.678788
endloop
endfacet
facet normal 0.000000 0.881921 -0.471397
outer loop
vertex -1.673750 6.467155 -2.678788
vertex 0.373750 6.467155 -2.678788
vertex 0.373749 5.820285 -3.888996
endloop
endfacet
facet normal 0.000000 0.881921 -0.471397
outer loop
vertex -1.673750 6.467155 -2.678788
vertex 0.373749 5.820285 -3.888996
vertex -1.673750 5.820285 -3.888996
endloop
endfacet
facet normal 0.000000 0.773010 -0.634394
outer loop
vertex -1.673750 5.820285 -3.888996
vertex 0.373749 5.820285 -3.888996
vertex 0.373749 4.949744 -4.949751
endloop
endfacet
facet normal 0.000000 0.773010 -0.634394
outer loop
vertex -1.673750 5.820285 -3.888996
vertex 0.373749 4.949744 -4.949751
vertex -1.673750 4.949744 -4.949751
endloop
endfacet
facet normal 0.000000 0.634392 -0.773011
outer loop
vertex -1.673750 4.949744 -4.949751
vertex 0.373749 4.949744 -4.949751
vertex 0.373749 3.888988 -5.820290
endloop
endfacet
facet normal 0.000000 0.634393 -0.773011
outer loop
vertex -1.673750 4.949744 -4.949751
vertex 0.373749 3.888988 -5.820290
vertex -1.673750 3.888988 -5.820290
endloop
endfacet
facet normal 0.000000 0.471396 -0.881922
outer loop
vertex -1.673750 3.888988 -5.820290
vertex 0.373749 3.888988 -5.820290
vertex 0.373750 2.678780 -6.467158
endloop
endfacet
facet normal 0.000000 0.471396 -0.881922
outer loop
vertex -1.673750 3.888988 -5.820290
vertex 0.373750 2.678780 -6.467158
vertex -1.673750 2.678780 -6.467158
endloop
endfacet
facet normal 0.000000 0.290284 -0.956940
outer loop
vertex -1.673750 2.678780 -6.467158
vertex 0.373750 2.678780 -6.467158
vertex 0.373750 1.365628 -6.865498
endloop
endfacet
facet normal 0.000000 0.290284 -0.956941
outer loop
vertex -1.673750 2.678780 -6.467158
vertex 0.373750 1.365628 -6.865498
vertex -1.673750 1.365628 -6.865498
endloop
endfacet
facet normal 0.000000 0.098017 -0.995185
outer loop
vertex -1.673750 1.365628 -6.865498
vertex 0.373750 1.365628 -6.865498
vertex 0.373750 -0.000005 -7.000000
endloop
endfacet
facet normal -0.000000 0.098017 -0.995185
outer loop
vertex -1.673750 1.365628 -6.865498
vertex 0.373750 -0.000005 -7.000000
vertex -1.673750 -0.000005 -7.000000
endloop
endfacet
facet normal 0.000000 -0.098018 -0.995185
outer loop
vertex -1.673750 -0.000005 -7.000000
vertex 0.373750 -0.000005 -7.000000
vertex 0.373750 -1.365637 -6.865496
endloop
endfacet
facet normal 0.000000 -0.098018 -0.995185
outer loop
vertex -1.673750 -0.000005 -7.000000
vertex 0.373750 -1.365637 -6.865496
vertex -1.673750 -1.365637 -6.865496
endloop
endfacet
facet normal 0.000000 -0.290285 -0.956940
outer loop
vertex -1.673750 -1.365637 -6.865496
vertex 0.373750 -1.365637 -6.865496
vertex 0.373750 -2.678788 -6.467155
endloop
endfacet
facet normal 0.000000 -0.290285 -0.956940
outer loop
vertex -1.673750 -1.365637 -6.865496
vertex 0.373750 -2.678788 -6.467155
vertex -1.673750 -2.678788 -6.467155
endloop
endfacet
facet normal 0.000000 -0.471397 -0.881921
outer loop
vertex -1.673750 -2.678788 -6.467155
vertex 0.373750 -2.678788 -6.467155
vertex 0.373750 -3.888995 -5.820285
endloop
endfacet
facet normal 0.000000 -0.471397 -0.881921
outer loop
vertex -1.673750 -2.678788 -6.467155
vertex 0.373750 -3.888995 -5.820285
vertex -1.673750 -3.888995 -5.820285
endloop
endfacet
facet normal 0.000000 -0.634394 -0.773010
outer loop
vertex -1.673750 -3.888995 -5.820285
vertex 0.373750 -3.888995 -5.820285
vertex 0.373750 -4.949751 -4.949744
endloop
endfacet
facet normal 0.000000 -0.634394 -0.773010
outer loop
vertex -1.673750 -3.888995 -5.820285
vertex 0.373750 -4.949751 -4.949744
vertex -1.673750 -4.949751 -4.949744
endloop
endfacet
facet normal 0.000000 -0.773011 -0.634393
outer loop
vertex -1.673750 -4.949751 -4.949744
vertex 0.373750 -4.949751 -4.949744
vertex 0.373750 -5.820290 -3.888988
endloop
endfacet
facet normal 0.000000 -0.773011 -0.634393
outer loop
vertex -1.673750 -4.949751 -4.949744
vertex 0.373750 -5.820290 -3.888988
vertex -1.673750 -5.820290 -3.888988
endloop
endfacet
facet normal 0.000000 -0.881922 -0.471396
outer loop
vertex -1.673750 -5.820290 -3.888988
vertex 0.373750 -5.820290 -3.888988
vertex 0.373750 -6.467158 -2.678780
endloop
endfacet
facet normal 0.000000 -0.881922 -0.471396
outer loop
vertex -1.673750 -5.820290 -3.888988
vertex 0.373750 -6.467158 -2.678780
vertex -1.673750 -6.467158 -2.678780
endloop
endfacet
facet normal 0.000000 -0.956940 -0.290285
outer loop
vertex -1.673750 -6.467158 -2.678780
vertex 0.373750 -6.467158 -2.678780
vertex 0.373750 -6.865498 -1.365628
endloop
endfacet
facet normal 0.000000 -0.956941 -0.290284
outer loop
vertex -1.673750 -6.467158 -2.678780
vertex 0.373750 -6.865498 -1.365628
vertex -1.673750 -6.865498 -1.365628
endloop
endfacet
facet normal 0.000000 -0.995185 -0.098016
outer loop
vertex -1.673750 -6.865498 -1.365628
vertex 0.373750 -6.865498 -1.365628
vertex 0.373750 -7.000000 0.000005
endloop
endfacet
facet normal -0.000000 -0.995185 -0.098016
outer loop
vertex -1.673750 -6.865498 -1.365628
vertex 0.373750 -7.000000 0.000005
vertex -1.673750 -7.000000 0.000005
endloop
endfacet
facet normal 0.000000 -0.995185 0.098018
outer loop
vertex -1.673750 -7.000000 0.000005
vertex 0.373750 -7.000000 0.000005
vertex 0.373750 -6.865496 1.365636
endloop
endfacet
facet normal 0.000000 -0.995185 0.098018
outer loop
vertex -1.673750 -7.000000 0.000005
vertex 0.373750 -6.865496 1.365636
vertex -1.673750 -6.865496 1.365636
endloop
endfacet
facet normal 0.000000 -0.956940 0.290285
outer loop
vertex -1.673750 -6.865496 1.365636
vertex 0.373750 -6.865496 1.365636
vertex 0.373750 -6.467155 2.678788
endloop
endfacet
facet normal 0.000000 -0.956940 0.290286
outer loop
vertex -1.673750 -6.865496 1.365636
vertex 0.373750 -6.467155 2.678788
vertex -1.673750 -6.467155 2.678788
endloop
endfacet
facet normal 0.000000 -0.881921 0.471397
outer loop
vertex -1.673750 -6.467155 2.678788
vertex 0.373750 -6.467155 2.678788
vertex 0.373750 -5.820284 3.888996
endloop
endfacet
facet normal 0.000000 -0.881921 0.471398
outer loop
vertex -1.673750 -6.467155 2.678788
vertex 0.373750 -5.820284 3.888996
vertex -1.673749 -5.820284 3.888996
endloop
endfacet
facet normal 0.000000 -0.773010 0.634393
outer loop
vertex -1.673749 -5.820284 3.888996
vertex 0.373750 -5.820284 3.888996
vertex 0.373750 -4.949745 4.949750
endloop
endfacet
facet normal 0.000000 -0.773010 0.634394
outer loop
vertex -1.673749 -5.820284 3.888996
vertex 0.373750 -4.949745 4.949750
vertex -1.673749 -4.949745 4.949750
endloop
endfacet
facet normal 0.000000 -0.634393 0.773011
outer loop
vertex -1.673749 -4.949745 4.949750
vertex 0.373750 -4.949745 4.949750
vertex 0.373750 -3.888989 5.820289
endloop
endfacet
facet normal 0.000000 -0.634393 0.773011
outer loop
vertex -1.673749 -4.949745 4.949750
vertex 0.373750 -3.888989 5.820289
vertex -1.673749 -3.888989 5.820289
endloop
endfacet
facet normal 0.000000 -0.471396 0.881921
outer loop
vertex -1.673749 -3.888989 5.820289
vertex 0.373750 -3.888989 5.820289
vertex 0.373750 -2.678781 6.467158
endloop
endfacet
facet normal 0.000000 -0.471397 0.881921
outer loop
vertex -1.673749 -3.888989 5.820289
vertex 0.373750 -2.678781 6.467158
vertex -1.673750 -2.678781 6.467158
endloop
endfacet
facet normal 0.000000 -0.290284 0.956941
outer loop
vertex -1.673750 -2.678781 6.467158
vertex 0.373750 -2.678781 6.467158
vertex 0.373750 -1.365628 6.865498
endloop
endfacet
facet normal 0.000000 -0.290284 0.956941
outer loop
vertex -1.673750 -2.678781 6.467158
vertex 0.373750 -1.365628 6.865498
vertex -1.673750 -1.365628 6.865498
endloop
endfacet
facet normal 0.000000 -0.098017 0.995185
outer loop
vertex -1.673750 -1.365628 6.865498
vertex 0.373750 -1.365628 6.865498
vertex 0.373750 0.000005 7.000000
endloop
endfacet
facet normal 0.000000 -0.098017 0.995185
outer loop
vertex -1.673750 -1.365628 6.865498
vertex 0.373750 0.000005 7.000000
vertex -1.673750 0.000005 7.000000
endloop
endfacet
facet normal -0.000001 0.098018 0.995185
outer loop
vertex -1.673750 0.000005 7.000000
vertex 0.373750 0.000005 7.000000
vertex 0.373750 1.365637 6.865496
endloop
endfacet
facet normal 0.000000 0.098018 0.995185
outer loop
vertex -1.673750 0.000005 7.000000
vertex 0.373750 1.365637 6.865496
vertex -1.673750 1.365637 6.865496
endloop
endfacet
facet normal 0.000000 0.290286 0.956940
outer loop
vertex -1.673750 1.365637 6.865496
vertex 0.373750 1.365637 6.865496
vertex 0.373750 2.678790 6.467154
endloop
endfacet
facet normal 0.000000 0.290286 0.956940
outer loop
vertex -1.673750 1.365637 6.865496
vertex 0.373750 2.678790 6.467154
vertex -1.673750 2.678790 6.467154
endloop
endfacet
facet normal 0.000000 0.471397 0.881921
outer loop
vertex -1.673750 2.678790 6.467154
vertex 0.373750 2.678790 6.467154
vertex 0.373750 3.888994 5.820286
endloop
endfacet
facet normal 0.000000 0.471397 0.881921
outer loop
vertex -1.673750 2.678790 6.467154
vertex 0.373750 3.888994 5.820286
vertex -1.673750 3.888994 5.820286
endloop
endfacet
facet normal 0.000000 0.634394 0.773010
outer loop
vertex -1.673750 3.888994 5.820286
vertex 0.373750 3.888994 5.820286
vertex 0.373750 4.949750 4.949745
endloop
endfacet
facet normal 0.000000 0.634394 0.773010
outer loop
vertex -1.673750 3.888994 5.820286
vertex 0.373750 4.949750 4.949745
vertex -1.673750 4.949750 4.949745
endloop
endfacet
facet normal 0.000000 0.773011 0.634393
outer loop
vertex -1.673750 4.949750 4.949745
vertex 0.373750 4.949750 4.949745
vertex 0.373750 5.820290 3.888988
endloop
endfacet
facet normal 0.000000 0.773011 0.634393
outer loop
vertex -1.673750 4.949750 4.949745
vertex 0.373750 5.820290 3.888988
vertex -1.673750 5.820290 3.888988
endloop
endfacet
facet normal 0.000000 0.881921 0.471396
outer loop
vertex -1.673750 5.820290 3.888988
vertex 0.373750 5.820290 3.888988
vertex 0.373750 6.467159 2.678780
endloop
endfacet
facet normal 0.000000 0.881922 0.471396
outer loop
vertex -1.673750 5.820290 3.888988
vertex 0.373750 6.467159 2.678780
vertex -1.673750 6.467159 2.678780
endloop
endfacet
facet normal 1.000000 0.000000 0.000000
outer loop
vertex 0.373750 6.467155 -2.678788
vertex 0.373750 6.865496 -1.365637
vertex 0.373750 7.000000 -0.000005
endloop
endfacet
facet normal 1.000000 -0.000000 -0.000000
outer loop
vertex 0.373750 7.000000 -0.000005
vertex 0.373750 6.865498 1.365627
vertex 0.373750 6.467159 2.678780
endloop
endfacet
facet normal 1.000000 0.000000 0.000000
outer loop
vertex 0.373750 6.467159 2.678780
vertex 0.373750 5.820290 3.888988
vertex 0.373750 4.949750 4.949745
endloop
endfacet
facet normal 1.000000 -0.000000 -0.000000
outer loop
vertex 0.373750 4.949750 4.949745
vertex 0.373750 3.888994 5.820286
vertex 0.373750 2.678790 6.467154
endloop
endfacet
facet normal 1.000000 0.000000 -0.000000
outer loop
vertex 0.373750 2.678790 6.467154
vertex 0.373750 1.365637 6.865496
vertex 0.373750 0.000005 7.000000
endloop
endfacet
facet normal 1.000000 0.000000 0.000000
outer loop
vertex 0.373750 0.000005 7.000000
vertex 0.373750 -1.365628 6.865498
vertex 0.373750 -2.678781 6.467158
endloop
endfacet
facet normal 1.000000 0.000000 -0.000000
outer loop
vertex 0.373750 -2.678781 6.467158
vertex 0.373750 -3.888989 5.820289
vertex 0.373750 -4.949745 4.949750
endloop
endfacet
facet normal 1.000000 0.000000 -0.000000
outer loop
vertex 0.373750 -4.949745 4.949750
vertex 0.373750 -5.820284 3.888996
vertex 0.373750 -6.467155 2.678788
endloop
endfacet
facet normal 1.000000 0.000000 0.000000
outer loop
vertex 0.373750 -6.467155 2.678788
vertex 0.373750 -6.865496 1.365636
vertex 0.373750 -7.000000 0.000005
endloop
endfacet
facet normal 1.000000 -0.000000 -0.000000
outer loop
vertex 0.373750 -7.000000 0.000005
vertex 0.373750 -6.865498 -1.365628
vertex 0.373750 -6.467158 -2.678780
endloop
endfacet
facet normal 1.000000 0.000000 0.000000
outer loop
vertex 0.373750 -6.467158 -2.678780
vertex 0.373750 -5.820290 -3.888988
vertex 0.373750 -4.949751 -4.949744
endloop
endfacet
facet normal 1.000000 -0.000000 -0.000000
outer loop
vertex 0.373750 -4.949751 -4.949744
vertex 0.373750 -3.888995 -5.820285
vertex 0.373750 -2.678788 -6.467155
endloop
endfacet
facet normal 1.000000 0.000000 -0.000000
outer loop
vertex 0.373750 -2.678788 -6.467155
vertex 0.373750 -1.365637 -6.865496
vertex 0.373750 -0.000005 -7.000000
endloop
endfacet
facet normal 1.000000 -0.000000 0.000000
outer loop
vertex 0.373750 -0.000005 -7.000000
vertex 0.373750 1.365628 -6.865498
vertex 0.373750 2.678780 -6.467158
endloop
endfacet
facet normal 1.000000 0.000000 -0.000000
outer loop
vertex 0.373750 2.678780 -6.467158
vertex 0.373749 3.888988 -5.820290
vertex 0.373749 4.949744 -4.949751
endloop
endfacet
facet normal 1.000000 0.000000 -0.000000
outer loop
vertex 0.373749 4.949744 -4.949751
vertex 0.373749 5.820285 -3.888996
vertex 0.373750 6.467155 -2.678788
endloop
endfacet
facet normal 1.000000 0.000000 -0.000000
outer loop
vertex 0.373750 6.467155 -2.678788
vertex 0.373750 7.000000 -0.000005
vertex 0.373750 6.467159 2.678780
endloop
endfacet
facet normal 1.000000 0.000000 -0.000000
outer loop
vertex 0.373750 6.467159 2.678780
vertex 0.373750 4.949750 4.949745
vertex 0.373750 2.678790 6.467154
endloop
endfacet
facet normal 1.000000 0.000000 -0.000000
outer loop
vertex 0.373750 2.678790 6.467154
vertex 0.373750 0.000005 7.000000
vertex 0.373750 -2.678781 6.467158
endloop
endfacet
facet normal 1.000000 0.000000 -0.000000
outer loop
vertex 0.373750 -2.678781 6.467158
vertex 0.373750 -4.949745 4.949750
vertex 0.373750 -6.467155 2.678788
endloop
endfacet
facet normal 1.000000 0.000000 -0.000000
outer loop
vertex 0.373750 -6.467155 2.678788
vertex 0.373750 -7.000000 0.000005
vertex 0.373750 -6.467158 -2.678780
endloop
endfacet
facet normal 1.000000 0.000000 -0.000000
outer loop
vertex 0.373750 -6.467158 -2.678780
vertex 0.373750 -4.949751 -4.949744
vertex 0.373750 -2.678788 -6.467155
endloop
endfacet
facet normal 1.000000 0.000000 -0.000000
outer loop
vertex 0.373750 -2.678788 -6.467155
vertex 0.373750 -0.000005 -7.000000
vertex 0.373750 2.678780 -6.467158
endloop
endfacet
facet normal 1.000000 0.000000 -0.000000
outer loop
vertex 0.373750 2.678780 -6.467158
vertex 0.373749 4.949744 -4.949751
vertex 0.373750 6.467155 -2.678788
endloop
endfacet
facet normal 1.000000 0.000000 -0.000000
outer loop
vertex 0.373750 6.467155 -2.678788
vertex 0.373750 6.467159 2.678780
vertex 0.373750 2.678790 6.467154
endloop
endfacet
facet normal 1.000000 0.000000 -0.000000
outer loop
vertex 0.373750 2.678790 6.467154
vertex 0.373750 -2.678781 6.467158
vertex 0.373750 -6.467155 2.678788
endloop
endfacet
facet normal 1.000000 0.000000 -0.000000
outer loop
vertex 0.373750 -6.467155 2.678788
vertex 0.373750 -6.467158 -2.678780
vertex 0.373750 -2.678788 -6.467155
endloop
endfacet
facet normal 1.000000 0.000000 -0.000000
outer loop
vertex 0.373750 -2.678788 -6.467155
vertex 0.373750 2.678780 -6.467158
vertex 0.373750 6.467155 -2.678788
endloop
endfacet
facet normal 1.000000 0.000000 -0.000000
outer loop
vertex 0.373750 6.467155 -2.678788
vertex 0.373750 2.678790 6.467154
vertex 0.373750 -6.467155 2.678788
endloop
endfacet
facet normal 1.000000 0.000000 -0.000000
outer loop
vertex 0.373750 -6.467155 2.678788
vertex 0.373750 -2.678788 -6.467155
vertex 0.373750 6.467155 -2.678788
endloop
endfacet
facet normal 0.000000 0.956941 0.290284
outer loop
vertex -1.673750 6.467159 2.678780
vertex 0.373750 6.467159 2.678780
vertex 0.373750 6.865498 1.365627
endloop
endfacet
facet normal 0.000000 0.956940 0.290284
outer loop
vertex -1.673750 6.467159 2.678780
vertex 0.373750 6.865498 1.365627
vertex -1.673750 6.865498 1.365627
endloop
endfacet
facet normal 0.000000 0.995185 0.098015
outer loop
vertex -1.673750 6.865498 1.365627
vertex 0.373750 6.865498 1.365627
vertex 0.373750 7.000000 -0.000005
endloop
endfacet
facet normal 0.000000 0.995185 0.098018
outer loop
vertex -1.673750 6.865498 1.365627
vertex 0.373750 7.000000 -0.000005
vertex -1.673750 7.000000 -0.000005
endloop
endfacet
facet normal -1.000000 0.000000 0.000000
outer loop
vertex -1.673750 6.865498 1.365627
vertex -1.673750 7.000000 -0.000005
vertex -1.673750 6.865496 -1.365637
endloop
endfacet
facet normal -1.000000 0.000001 -0.000000
outer loop
vertex -1.673750 6.865496 -1.365637
vertex -1.673750 6.467155 -2.678788
vertex -1.673750 5.820285 -3.888996
endloop
endfacet
facet normal -1.000000 0.000001 0.000000
outer loop
vertex -1.673750 5.820285 -3.888996
vertex -1.673750 4.949744 -4.949751
vertex -1.673750 3.888988 -5.820290
endloop
endfacet
facet normal -1.000000 0.000000 -0.000000
outer loop
vertex -1.673750 3.888988 -5.820290
vertex -1.673750 2.678780 -6.467158
vertex -1.673750 1.365628 -6.865498
endloop
endfacet
facet normal -1.000000 -0.000000 0.000000
outer loop
vertex -1.673750 1.365628 -6.865498
vertex -1.673750 -0.000005 -7.000000
vertex -1.673750 -1.365637 -6.865496
endloop
endfacet
facet normal -1.000000 0.000000 -0.000000
outer loop
vertex -1.673750 -1.365637 -6.865496
vertex -1.673750 -2.678788 -6.467155
vertex -1.673750 -3.888995 -5.820285
endloop
endfacet
facet normal -1.000000 -0.000001 0.000000
outer loop
vertex -1.673750 -3.888995 -5.820285
vertex -1.673750 -4.949751 -4.949744
vertex -1.673750 -5.820290 -3.888988
endloop
endfacet
facet normal -1.000000 0.000001 0.000000
outer loop
vertex -1.673750 -5.820290 -3.888988
vertex -1.673750 -6.467158 -2.678780
vertex -1.673750 -6.865498 -1.365628
endloop
endfacet
facet normal -1.000000 -0.000001 0.000000
outer loop
vertex -1.673750 -6.865498 -1.365628
vertex -1.673750 -7.000000 0.000005
vertex -1.673750 -6.865496 1.365636
endloop
endfacet
facet normal -1.000000 -0.000001 -0.000000
outer loop
vertex -1.673750 -6.865496 1.365636
vertex -1.673750 -6.467155 2.678788
vertex -1.673749 -5.820284 3.888996
endloop
endfacet
facet normal -1.000000 -0.000001 0.000000
outer loop
vertex -1.673749 -5.820284 3.888996
vertex -1.673749 -4.949745 4.949750
vertex -1.673749 -3.888989 5.820289
endloop
endfacet
facet normal -1.000000 0.000000 -0.000000
outer loop
vertex -1.673749 -3.888989 5.820289
vertex -1.673750 -2.678781 6.467158
vertex -1.673750 -1.365628 6.865498
endloop
endfacet
facet normal -1.000000 -0.000000 0.000000
outer loop
vertex -1.673750 -1.365628 6.865498
vertex -1.673750 0.000005 7.000000
vertex -1.673750 1.365637 6.865496
endloop
endfacet
facet normal -1.000000 -0.000001 -0.000000
outer loop
vertex -1.673750 1.365637 6.865496
vertex -1.673750 2.678790 6.467154
vertex -1.673750 3.888994 5.820286
endloop
endfacet
facet normal -1.000000 0.000000 0.000000
outer loop
vertex -1.673750 3.888994 5.820286
vertex -1.673750 4.949750 4.949745
vertex -1.673750 5.820290 3.888988
endloop
endfacet
facet normal -1.000000 0.000001 0.000000
outer loop
vertex -1.673750 5.820290 3.888988
vertex -1.673750 6.467159 2.678780
vertex -1.673750 6.865498 1.365627
endloop
endfacet
facet normal -1.000000 -0.000001 0.000000
outer loop
vertex -1.673750 6.865498 1.365627
vertex -1.673750 6.865496 -1.365637
vertex -1.673750 5.820285 -3.888996
endloop
endfacet
facet normal -1.000000 -0.000000 0.000000
outer loop
vertex -1.673750 5.820285 -3.888996
vertex -1.673750 3.888988 -5.820290
vertex -1.673750 1.365628 -6.865498
endloop
endfacet
facet normal -1.000000 0.000000 0.000000
outer loop
vertex -1.673750 1.365628 -6.865498
vertex -1.673750 -1.365637 -6.865496
vertex -1.673750 -3.888995 -5.820285
endloop
endfacet
facet normal -1.000000 -0.000000 -0.000000
outer loop
vertex -1.673750 -3.888995 -5.820285
vertex -1.673750 -5.820290 -3.888988
vertex -1.673750 -6.865498 -1.365628
endloop
endfacet
facet normal -1.000000 0.000000 0.000000
outer loop
vertex -1.673750 -6.865498 -1.365628
vertex -1.673750 -6.865496 1.365636
vertex -1.673749 -5.820284 3.888996
endloop
endfacet
facet normal -1.000000 0.000000 0.000000
outer loop
vertex -1.673749 -5.820284 3.888996
vertex -1.673749 -3.888989 5.820289
vertex -1.673750 -1.365628 6.865498
endloop
endfacet
facet normal -1.000000 0.000000 0.000000
outer loop
vertex -1.673750 -1.365628 6.865498
vertex -1.673750 1.365637 6.865496
vertex -1.673750 3.888994 5.820286
endloop
endfacet
facet normal -1.000000 -0.000001 -0.000000
outer loop
vertex -1.673750 3.888994 5.820286
vertex -1.673750 5.820290 3.888988
vertex -1.673750 6.865498 1.365627
endloop
endfacet
facet normal -1.000000 0.000000 0.000000
outer loop
vertex -1.673750 6.865498 1.365627
vertex -1.673750 5.820285 -3.888996
vertex -1.673750 1.365628 -6.865498
endloop
endfacet
facet normal -1.000000 -0.000000 0.000000
outer loop
vertex -1.673750 1.365628 -6.865498
vertex -1.673750 -3.888995 -5.820285
vertex -1.673750 -6.865498 -1.365628
endloop
endfacet
facet normal -1.000000 -0.000000 0.000000
outer loop
vertex -1.673750 -6.865498 -1.365628
vertex -1.673749 -5.820284 3.888996
vertex -1.673750 -1.365628 6.865498
endloop
endfacet
facet normal -1.000000 0.000000 0.000000
outer loop
vertex -1.673750 -1.365628 6.865498
vertex -1.673750 3.888994 5.820286
vertex -1.673750 6.865498 1.365627
endloop
endfacet
facet normal -1.000000 -0.000000 0.000000
outer loop
vertex -1.673750 6.865498 1.365627
vertex -1.673750 1.365628 -6.865498
vertex -1.673750 -6.865498 -1.365628
endloop
endfacet
facet normal -1.000000 -0.000000 0.000000
outer loop
vertex -1.673750 -6.865498 -1.365628
vertex -1.673750 -1.365628 6.865498
vertex -1.673750 6.865498 1.365627
endloop
endfacet
endsolid AMI_7000mm
