solid xMin
  facet normal 1.0 0.0 0.0
    outer loop
      vertex -22.0 -22.0 -40.3
      vertex -22.0 25.0 -40.3
      vertex -22.0 25.0 25.0
    endloop
  endfacet
  facet normal 1.0 0.0 0.0
    outer loop
      vertex -22.0 -22.0 -40.3
      vertex -22.0 25.0 25.0
      vertex -22.0 -22.0 25.0
    endloop
  endfacet
endsolid
solid xMax
  facet normal -1.0 0.0 0.0
    outer loop
      vertex 70.0 -22.0 -40.3
      vertex 70.0 -22.0 25.0
      vertex 70.0 25.0 25.0
    endloop
  endfacet
  facet normal -1.0 0.0 0.0
    outer loop
      vertex 70.0 -22.0 -40.3
      vertex 70.0 25.0 25.0
      vertex 70.0 25.0 -40.3
    endloop
  endfacet
endsolid
solid yMin
  facet normal 0.0 -1.0 0.0
    outer loop
      vertex -22.0 -22.0 -40.3
      vertex 70.0 -22.0 -40.3
      vertex 70.0 -22.0 25.0
    endloop
  endfacet
  facet normal 0.0 -1.0 0.0
    outer loop
      vertex -22.0 -22.0 -40.3
      vertex 70.0 -22.0 25.0
      vertex -22.0 -22.0 25.0
    endloop
  endfacet
endsolid
solid yMax
  facet normal 0.0 -1.0 0.0
    outer loop
      vertex 70.0 25.0 -40.3
      vertex 70.0 25.0 25.0
      vertex -22.0 25.0 25.0
    endloop
  endfacet
  facet normal 0.0 -1.0 0.0
    outer loop
      vertex 70.0 25.0 -40.3
      vertex -22.0 25.0 25.0
      vertex -22.0 25.0 -40.3
    endloop
  endfacet
endsolid
solid zMin
  facet normal 0.0 0.0 -1.0
    outer loop
      vertex -22.0 -22.0 -40.3
      vertex 70.0 25.0 -40.3
      vertex 70.0 -22.0 -40.3
    endloop
  endfacet
  facet normal 0.0 0.0 -1.0
    outer loop
      vertex -22.0 -22.0 -40.3
      vertex -22.0 25.0 -40.3
      vertex 70.0 25.0 -40.3
    endloop
  endfacet
endsolid
solid zMax
  facet normal 0.0 0.0 -1.0
    outer loop
      vertex -22.0 -22.0 25.0
      vertex 70.0 25.0 25.0
      vertex 70.0 -22.0 25.0
    endloop
  endfacet
  facet normal 0.0 0.0 -1.0
    outer loop
      vertex -22.0 -22.0 25.0
      vertex -22.0 25.0 25.0
      vertex 70.0 25.0 25.0
    endloop
  endfacet
endsolid
